<mxfile host="Electron" modified="2024-03-27T16:08:25.536Z" agent="Mozilla/5.0 (Windows NT 10.0; Win64; x64) AppleWebKit/537.36 (KHTML, like Gecko) draw.io/24.1.0 Chrome/120.0.6099.109 Electron/28.1.0 Safari/537.36" etag="UEYLLozF6azSij1gJNRN" version="24.1.0" type="device">
  <diagram name="Pagina-1" id="m6wjFcSwWmpU4VQ3cmHv">
    <mxGraphModel dx="1235" dy="1900" grid="1" gridSize="10" guides="1" tooltips="1" connect="1" arrows="1" fold="1" page="1" pageScale="1" pageWidth="827" pageHeight="1169" math="0" shadow="1">
      <root>
        <mxCell id="0" />
        <mxCell id="1" parent="0" />
        <mxCell id="8x8lRua5yeeO8kw2qOX0-24" style="edgeStyle=orthogonalEdgeStyle;rounded=0;orthogonalLoop=1;jettySize=auto;html=1;entryX=0.5;entryY=0;entryDx=0;entryDy=0;endArrow=block;endFill=1;" parent="1" source="8x8lRua5yeeO8kw2qOX0-2" target="8x8lRua5yeeO8kw2qOX0-23" edge="1">
          <mxGeometry relative="1" as="geometry" />
        </mxCell>
        <mxCell id="8x8lRua5yeeO8kw2qOX0-31" style="edgeStyle=orthogonalEdgeStyle;rounded=0;orthogonalLoop=1;jettySize=auto;html=1;endArrow=doubleBlock;endFill=1;" parent="1" source="8x8lRua5yeeO8kw2qOX0-2" target="8x8lRua5yeeO8kw2qOX0-16" edge="1">
          <mxGeometry relative="1" as="geometry" />
        </mxCell>
        <mxCell id="8x8lRua5yeeO8kw2qOX0-62" value="" style="edgeStyle=orthogonalEdgeStyle;rounded=0;orthogonalLoop=1;jettySize=auto;html=1;entryX=0;entryY=0.5;entryDx=0;entryDy=0;" parent="1" source="8x8lRua5yeeO8kw2qOX0-2" target="8x8lRua5yeeO8kw2qOX0-61" edge="1">
          <mxGeometry relative="1" as="geometry" />
        </mxCell>
        <mxCell id="8x8lRua5yeeO8kw2qOX0-68" style="edgeStyle=orthogonalEdgeStyle;rounded=0;orthogonalLoop=1;jettySize=auto;html=1;entryX=0;entryY=0.5;entryDx=0;entryDy=0;" parent="1" source="8x8lRua5yeeO8kw2qOX0-2" target="8x8lRua5yeeO8kw2qOX0-64" edge="1">
          <mxGeometry relative="1" as="geometry" />
        </mxCell>
        <mxCell id="8x8lRua5yeeO8kw2qOX0-71" style="edgeStyle=orthogonalEdgeStyle;rounded=0;orthogonalLoop=1;jettySize=auto;html=1;entryX=0;entryY=0.5;entryDx=0;entryDy=0;" parent="1" source="8x8lRua5yeeO8kw2qOX0-2" target="8x8lRua5yeeO8kw2qOX0-70" edge="1">
          <mxGeometry relative="1" as="geometry" />
        </mxCell>
        <mxCell id="8x8lRua5yeeO8kw2qOX0-76" style="edgeStyle=orthogonalEdgeStyle;rounded=0;orthogonalLoop=1;jettySize=auto;html=1;endArrow=doubleBlock;endFill=1;" parent="1" source="8x8lRua5yeeO8kw2qOX0-2" target="8x8lRua5yeeO8kw2qOX0-74" edge="1">
          <mxGeometry relative="1" as="geometry" />
        </mxCell>
        <mxCell id="8x8lRua5yeeO8kw2qOX0-2" value="Variazione" style="rounded=0;whiteSpace=wrap;html=1;" parent="1" vertex="1">
          <mxGeometry x="414" y="90" width="120" height="60" as="geometry" />
        </mxCell>
        <mxCell id="8x8lRua5yeeO8kw2qOX0-10" style="edgeStyle=orthogonalEdgeStyle;rounded=0;orthogonalLoop=1;jettySize=auto;html=1;entryX=0;entryY=0.5;entryDx=0;entryDy=0;" parent="1" source="8x8lRua5yeeO8kw2qOX0-3" target="8x8lRua5yeeO8kw2qOX0-8" edge="1">
          <mxGeometry relative="1" as="geometry">
            <Array as="points">
              <mxPoint x="560" y="350" />
              <mxPoint x="560" y="380" />
            </Array>
          </mxGeometry>
        </mxCell>
        <mxCell id="8x8lRua5yeeO8kw2qOX0-25" style="edgeStyle=orthogonalEdgeStyle;rounded=0;orthogonalLoop=1;jettySize=auto;html=1;endArrow=doubleBlock;endFill=1;" parent="1" source="8x8lRua5yeeO8kw2qOX0-3" target="8x8lRua5yeeO8kw2qOX0-23" edge="1">
          <mxGeometry relative="1" as="geometry" />
        </mxCell>
        <mxCell id="8x8lRua5yeeO8kw2qOX0-26" style="edgeStyle=orthogonalEdgeStyle;rounded=0;orthogonalLoop=1;jettySize=auto;html=1;entryX=0;entryY=0.5;entryDx=0;entryDy=0;exitX=1;exitY=0.75;exitDx=0;exitDy=0;" parent="1" source="8x8lRua5yeeO8kw2qOX0-3" target="8x8lRua5yeeO8kw2qOX0-7" edge="1">
          <mxGeometry relative="1" as="geometry">
            <Array as="points">
              <mxPoint x="534" y="350" />
              <mxPoint x="560" y="350" />
              <mxPoint x="560" y="320" />
            </Array>
          </mxGeometry>
        </mxCell>
        <mxCell id="8x8lRua5yeeO8kw2qOX0-30" style="edgeStyle=orthogonalEdgeStyle;rounded=0;orthogonalLoop=1;jettySize=auto;html=1;" parent="1" source="8x8lRua5yeeO8kw2qOX0-3" target="8x8lRua5yeeO8kw2qOX0-28" edge="1">
          <mxGeometry relative="1" as="geometry" />
        </mxCell>
        <mxCell id="8x8lRua5yeeO8kw2qOX0-3" value="Prodotto" style="rounded=0;whiteSpace=wrap;html=1;" parent="1" vertex="1">
          <mxGeometry x="414" y="310" width="120" height="60" as="geometry" />
        </mxCell>
        <mxCell id="8x8lRua5yeeO8kw2qOX0-29" style="edgeStyle=orthogonalEdgeStyle;rounded=0;orthogonalLoop=1;jettySize=auto;html=1;endArrow=doubleBlock;endFill=1;" parent="1" source="8x8lRua5yeeO8kw2qOX0-4" target="8x8lRua5yeeO8kw2qOX0-28" edge="1">
          <mxGeometry relative="1" as="geometry">
            <mxPoint x="474" y="500" as="targetPoint" />
          </mxGeometry>
        </mxCell>
        <mxCell id="8x8lRua5yeeO8kw2qOX0-86" style="edgeStyle=orthogonalEdgeStyle;rounded=0;orthogonalLoop=1;jettySize=auto;html=1;entryX=0;entryY=0.5;entryDx=0;entryDy=0;" parent="1" source="8x8lRua5yeeO8kw2qOX0-4" target="8x8lRua5yeeO8kw2qOX0-85" edge="1">
          <mxGeometry relative="1" as="geometry" />
        </mxCell>
        <mxCell id="8x8lRua5yeeO8kw2qOX0-4" value="Categoria" style="rounded=0;whiteSpace=wrap;html=1;" parent="1" vertex="1">
          <mxGeometry x="414" y="550" width="120" height="60" as="geometry" />
        </mxCell>
        <mxCell id="8x8lRua5yeeO8kw2qOX0-15" style="edgeStyle=orthogonalEdgeStyle;rounded=0;orthogonalLoop=1;jettySize=auto;html=1;endArrow=doubleBlock;endFill=1;" parent="1" source="8x8lRua5yeeO8kw2qOX0-5" target="8x8lRua5yeeO8kw2qOX0-13" edge="1">
          <mxGeometry relative="1" as="geometry" />
        </mxCell>
        <mxCell id="8x8lRua5yeeO8kw2qOX0-40" style="edgeStyle=orthogonalEdgeStyle;rounded=0;orthogonalLoop=1;jettySize=auto;html=1;entryX=0;entryY=0.5;entryDx=0;entryDy=0;" parent="1" source="8x8lRua5yeeO8kw2qOX0-5" target="8x8lRua5yeeO8kw2qOX0-32" edge="1">
          <mxGeometry relative="1" as="geometry" />
        </mxCell>
        <mxCell id="8x8lRua5yeeO8kw2qOX0-41" style="edgeStyle=orthogonalEdgeStyle;rounded=0;orthogonalLoop=1;jettySize=auto;html=1;entryX=0;entryY=0.5;entryDx=0;entryDy=0;" parent="1" source="8x8lRua5yeeO8kw2qOX0-5" target="8x8lRua5yeeO8kw2qOX0-33" edge="1">
          <mxGeometry relative="1" as="geometry" />
        </mxCell>
        <mxCell id="8x8lRua5yeeO8kw2qOX0-42" style="edgeStyle=orthogonalEdgeStyle;rounded=0;orthogonalLoop=1;jettySize=auto;html=1;entryX=0;entryY=0.5;entryDx=0;entryDy=0;" parent="1" source="8x8lRua5yeeO8kw2qOX0-5" target="8x8lRua5yeeO8kw2qOX0-34" edge="1">
          <mxGeometry relative="1" as="geometry" />
        </mxCell>
        <mxCell id="8x8lRua5yeeO8kw2qOX0-43" style="edgeStyle=orthogonalEdgeStyle;rounded=0;orthogonalLoop=1;jettySize=auto;html=1;entryX=0;entryY=0.5;entryDx=0;entryDy=0;" parent="1" source="8x8lRua5yeeO8kw2qOX0-5" target="8x8lRua5yeeO8kw2qOX0-35" edge="1">
          <mxGeometry relative="1" as="geometry" />
        </mxCell>
        <mxCell id="8x8lRua5yeeO8kw2qOX0-55" style="edgeStyle=orthogonalEdgeStyle;rounded=0;orthogonalLoop=1;jettySize=auto;html=1;entryX=0;entryY=0.5;entryDx=0;entryDy=0;" parent="1" source="8x8lRua5yeeO8kw2qOX0-5" target="8x8lRua5yeeO8kw2qOX0-53" edge="1">
          <mxGeometry relative="1" as="geometry" />
        </mxCell>
        <mxCell id="8x8lRua5yeeO8kw2qOX0-5" value="Utente" style="rounded=0;whiteSpace=wrap;html=1;" parent="1" vertex="1">
          <mxGeometry x="1090" y="90" width="120" height="60" as="geometry" />
        </mxCell>
        <mxCell id="8x8lRua5yeeO8kw2qOX0-14" style="edgeStyle=orthogonalEdgeStyle;rounded=0;orthogonalLoop=1;jettySize=auto;html=1;entryX=0;entryY=0.5;entryDx=0;entryDy=0;" parent="1" source="8x8lRua5yeeO8kw2qOX0-6" target="8x8lRua5yeeO8kw2qOX0-13" edge="1">
          <mxGeometry relative="1" as="geometry" />
        </mxCell>
        <mxCell id="8x8lRua5yeeO8kw2qOX0-18" style="edgeStyle=orthogonalEdgeStyle;rounded=0;orthogonalLoop=1;jettySize=auto;html=1;endArrow=doubleBlock;endFill=1;" parent="1" source="8x8lRua5yeeO8kw2qOX0-6" target="8x8lRua5yeeO8kw2qOX0-16" edge="1">
          <mxGeometry relative="1" as="geometry" />
        </mxCell>
        <mxCell id="8x8lRua5yeeO8kw2qOX0-48" style="edgeStyle=orthogonalEdgeStyle;rounded=0;orthogonalLoop=1;jettySize=auto;html=1;entryX=0;entryY=0.5;entryDx=0;entryDy=0;" parent="1" source="8x8lRua5yeeO8kw2qOX0-6" target="8x8lRua5yeeO8kw2qOX0-44" edge="1">
          <mxGeometry relative="1" as="geometry" />
        </mxCell>
        <mxCell id="8x8lRua5yeeO8kw2qOX0-58" style="edgeStyle=orthogonalEdgeStyle;rounded=0;orthogonalLoop=1;jettySize=auto;html=1;entryX=0;entryY=0.5;entryDx=0;entryDy=0;" parent="1" source="8x8lRua5yeeO8kw2qOX0-6" target="8x8lRua5yeeO8kw2qOX0-45" edge="1">
          <mxGeometry relative="1" as="geometry" />
        </mxCell>
        <mxCell id="8x8lRua5yeeO8kw2qOX0-59" style="edgeStyle=orthogonalEdgeStyle;rounded=0;orthogonalLoop=1;jettySize=auto;html=1;entryX=0;entryY=0.5;entryDx=0;entryDy=0;" parent="1" source="8x8lRua5yeeO8kw2qOX0-6" target="8x8lRua5yeeO8kw2qOX0-46" edge="1">
          <mxGeometry relative="1" as="geometry" />
        </mxCell>
        <mxCell id="8x8lRua5yeeO8kw2qOX0-6" value="Ordine" style="rounded=0;whiteSpace=wrap;html=1;" parent="1" vertex="1">
          <mxGeometry x="750" y="90" width="120" height="60" as="geometry" />
        </mxCell>
        <mxCell id="8x8lRua5yeeO8kw2qOX0-7" value="" style="ellipse;whiteSpace=wrap;html=1;aspect=fixed;" parent="1" vertex="1">
          <mxGeometry x="599" y="300" width="40" height="40" as="geometry" />
        </mxCell>
        <mxCell id="8x8lRua5yeeO8kw2qOX0-8" value="" style="ellipse;whiteSpace=wrap;html=1;aspect=fixed;" parent="1" vertex="1">
          <mxGeometry x="599" y="360" width="40" height="40" as="geometry" />
        </mxCell>
        <mxCell id="8x8lRua5yeeO8kw2qOX0-11" value="Marca" style="text;html=1;align=center;verticalAlign=middle;whiteSpace=wrap;rounded=0;" parent="1" vertex="1">
          <mxGeometry x="639" y="305" width="50" height="30" as="geometry" />
        </mxCell>
        <mxCell id="8x8lRua5yeeO8kw2qOX0-12" value="Modello" style="text;html=1;align=center;verticalAlign=middle;whiteSpace=wrap;rounded=0;" parent="1" vertex="1">
          <mxGeometry x="639" y="365" width="60" height="30" as="geometry" />
        </mxCell>
        <mxCell id="8x8lRua5yeeO8kw2qOX0-13" value="Effettua" style="rhombus;whiteSpace=wrap;html=1;" parent="1" vertex="1">
          <mxGeometry x="940" y="80" width="80" height="80" as="geometry" />
        </mxCell>
        <mxCell id="8x8lRua5yeeO8kw2qOX0-16" value="Interessa" style="rhombus;whiteSpace=wrap;html=1;" parent="1" vertex="1">
          <mxGeometry x="604" y="80" width="80" height="80" as="geometry" />
        </mxCell>
        <mxCell id="8x8lRua5yeeO8kw2qOX0-23" value="HA" style="rhombus;whiteSpace=wrap;html=1;" parent="1" vertex="1">
          <mxGeometry x="434" y="190" width="80" height="80" as="geometry" />
        </mxCell>
        <mxCell id="8x8lRua5yeeO8kw2qOX0-28" value="HA" style="rhombus;whiteSpace=wrap;html=1;" parent="1" vertex="1">
          <mxGeometry x="434" y="410" width="80" height="80" as="geometry" />
        </mxCell>
        <mxCell id="8x8lRua5yeeO8kw2qOX0-32" value="" style="ellipse;whiteSpace=wrap;html=1;aspect=fixed;" parent="1" vertex="1">
          <mxGeometry x="1201" y="200" width="40" height="40" as="geometry" />
        </mxCell>
        <mxCell id="8x8lRua5yeeO8kw2qOX0-33" value="" style="ellipse;whiteSpace=wrap;html=1;aspect=fixed;" parent="1" vertex="1">
          <mxGeometry x="1201" y="260" width="40" height="40" as="geometry" />
        </mxCell>
        <mxCell id="8x8lRua5yeeO8kw2qOX0-34" value="" style="ellipse;whiteSpace=wrap;html=1;aspect=fixed;" parent="1" vertex="1">
          <mxGeometry x="1201" y="320" width="40" height="40" as="geometry" />
        </mxCell>
        <mxCell id="8x8lRua5yeeO8kw2qOX0-35" value="" style="ellipse;whiteSpace=wrap;html=1;aspect=fixed;fillColor=#000000;" parent="1" vertex="1">
          <mxGeometry x="1201" y="380" width="40" height="40" as="geometry" />
        </mxCell>
        <mxCell id="8x8lRua5yeeO8kw2qOX0-36" value="Nome" style="text;html=1;align=center;verticalAlign=middle;whiteSpace=wrap;rounded=0;" parent="1" vertex="1">
          <mxGeometry x="1241" y="205" width="49" height="30" as="geometry" />
        </mxCell>
        <mxCell id="8x8lRua5yeeO8kw2qOX0-37" value="Cognome" style="text;html=1;align=center;verticalAlign=middle;whiteSpace=wrap;rounded=0;" parent="1" vertex="1">
          <mxGeometry x="1241" y="265" width="69" height="30" as="geometry" />
        </mxCell>
        <mxCell id="8x8lRua5yeeO8kw2qOX0-38" value="Telefono" style="text;html=1;align=center;verticalAlign=middle;whiteSpace=wrap;rounded=0;" parent="1" vertex="1">
          <mxGeometry x="1236" y="325" width="74" height="30" as="geometry" />
        </mxCell>
        <mxCell id="8x8lRua5yeeO8kw2qOX0-39" value="Mail" style="text;html=1;align=center;verticalAlign=middle;whiteSpace=wrap;rounded=0;" parent="1" vertex="1">
          <mxGeometry x="1243" y="385" width="47" height="30" as="geometry" />
        </mxCell>
        <mxCell id="8x8lRua5yeeO8kw2qOX0-44" value="" style="ellipse;whiteSpace=wrap;html=1;aspect=fixed;fillColor=#000000;" parent="1" vertex="1">
          <mxGeometry x="850" y="210" width="40" height="40" as="geometry" />
        </mxCell>
        <mxCell id="8x8lRua5yeeO8kw2qOX0-45" value="" style="ellipse;whiteSpace=wrap;html=1;aspect=fixed;" parent="1" vertex="1">
          <mxGeometry x="850" y="265" width="40" height="40" as="geometry" />
        </mxCell>
        <mxCell id="8x8lRua5yeeO8kw2qOX0-46" value="" style="ellipse;whiteSpace=wrap;html=1;aspect=fixed;" parent="1" vertex="1">
          <mxGeometry x="850" y="320" width="40" height="40" as="geometry" />
        </mxCell>
        <mxCell id="8x8lRua5yeeO8kw2qOX0-47" value="N.Ordine" style="text;html=1;align=center;verticalAlign=middle;whiteSpace=wrap;rounded=0;" parent="1" vertex="1">
          <mxGeometry x="890" y="215" width="60" height="30" as="geometry" />
        </mxCell>
        <mxCell id="8x8lRua5yeeO8kw2qOX0-49" value="Data d&#39;emissione" style="text;html=1;align=center;verticalAlign=middle;whiteSpace=wrap;rounded=0;" parent="1" vertex="1">
          <mxGeometry x="890" y="270" width="80" height="30" as="geometry" />
        </mxCell>
        <mxCell id="8x8lRua5yeeO8kw2qOX0-50" value="IsArrivato" style="text;html=1;align=center;verticalAlign=middle;whiteSpace=wrap;rounded=0;" parent="1" vertex="1">
          <mxGeometry x="895" y="325" width="50" height="30" as="geometry" />
        </mxCell>
        <mxCell id="8x8lRua5yeeO8kw2qOX0-53" value="" style="ellipse;whiteSpace=wrap;html=1;aspect=fixed;fillColor=#000000;" parent="1" vertex="1">
          <mxGeometry x="1203" y="440" width="40" height="40" as="geometry" />
        </mxCell>
        <mxCell id="8x8lRua5yeeO8kw2qOX0-54" value="NomeUtente" style="text;html=1;align=center;verticalAlign=middle;whiteSpace=wrap;rounded=0;" parent="1" vertex="1">
          <mxGeometry x="1241" y="445" width="89" height="30" as="geometry" />
        </mxCell>
        <mxCell id="8x8lRua5yeeO8kw2qOX0-61" value="" style="ellipse;whiteSpace=wrap;html=1;rounded=0;" parent="1" vertex="1">
          <mxGeometry x="504" width="40" height="40" as="geometry" />
        </mxCell>
        <mxCell id="8x8lRua5yeeO8kw2qOX0-63" value="Colore" style="text;html=1;align=center;verticalAlign=middle;whiteSpace=wrap;rounded=0;" parent="1" vertex="1">
          <mxGeometry x="544" y="5" width="60" height="30" as="geometry" />
        </mxCell>
        <mxCell id="8x8lRua5yeeO8kw2qOX0-64" value="" style="ellipse;whiteSpace=wrap;html=1;aspect=fixed;" parent="1" vertex="1">
          <mxGeometry x="504" y="-60" width="40" height="40" as="geometry" />
        </mxCell>
        <mxCell id="8x8lRua5yeeO8kw2qOX0-66" value="Taglia" style="text;html=1;align=center;verticalAlign=middle;whiteSpace=wrap;rounded=0;" parent="1" vertex="1">
          <mxGeometry x="544" y="-55" width="56" height="30" as="geometry" />
        </mxCell>
        <mxCell id="8x8lRua5yeeO8kw2qOX0-70" value="" style="ellipse;whiteSpace=wrap;html=1;aspect=fixed;" parent="1" vertex="1">
          <mxGeometry x="504" y="-110" width="40" height="40" as="geometry" />
        </mxCell>
        <mxCell id="8x8lRua5yeeO8kw2qOX0-72" value="Quantita" style="text;html=1;align=center;verticalAlign=middle;whiteSpace=wrap;rounded=0;" parent="1" vertex="1">
          <mxGeometry x="544" y="-105" width="66" height="30" as="geometry" />
        </mxCell>
        <mxCell id="8x8lRua5yeeO8kw2qOX0-75" style="edgeStyle=orthogonalEdgeStyle;rounded=0;orthogonalLoop=1;jettySize=auto;html=1;" parent="1" source="8x8lRua5yeeO8kw2qOX0-73" target="8x8lRua5yeeO8kw2qOX0-74" edge="1">
          <mxGeometry relative="1" as="geometry" />
        </mxCell>
        <mxCell id="8x8lRua5yeeO8kw2qOX0-81" style="edgeStyle=orthogonalEdgeStyle;rounded=0;orthogonalLoop=1;jettySize=auto;html=1;entryX=0;entryY=0.5;entryDx=0;entryDy=0;" parent="1" source="8x8lRua5yeeO8kw2qOX0-73" target="8x8lRua5yeeO8kw2qOX0-77" edge="1">
          <mxGeometry relative="1" as="geometry" />
        </mxCell>
        <mxCell id="8x8lRua5yeeO8kw2qOX0-82" style="edgeStyle=orthogonalEdgeStyle;rounded=0;orthogonalLoop=1;jettySize=auto;html=1;entryX=0;entryY=0.5;entryDx=0;entryDy=0;" parent="1" source="8x8lRua5yeeO8kw2qOX0-73" target="8x8lRua5yeeO8kw2qOX0-78" edge="1">
          <mxGeometry relative="1" as="geometry" />
        </mxCell>
        <mxCell id="8x8lRua5yeeO8kw2qOX0-84" style="edgeStyle=orthogonalEdgeStyle;rounded=0;orthogonalLoop=1;jettySize=auto;html=1;entryX=0;entryY=0.5;entryDx=0;entryDy=0;" parent="1" source="8x8lRua5yeeO8kw2qOX0-73" target="8x8lRua5yeeO8kw2qOX0-83" edge="1">
          <mxGeometry relative="1" as="geometry" />
        </mxCell>
        <mxCell id="8x8lRua5yeeO8kw2qOX0-89" style="edgeStyle=orthogonalEdgeStyle;rounded=0;orthogonalLoop=1;jettySize=auto;html=1;entryX=0;entryY=0.5;entryDx=0;entryDy=0;" parent="1" source="8x8lRua5yeeO8kw2qOX0-73" target="8x8lRua5yeeO8kw2qOX0-88" edge="1">
          <mxGeometry relative="1" as="geometry" />
        </mxCell>
        <mxCell id="8x8lRua5yeeO8kw2qOX0-73" value="Prezzo" style="rounded=0;whiteSpace=wrap;html=1;" parent="1" vertex="1">
          <mxGeometry x="90" y="90" width="120" height="60" as="geometry" />
        </mxCell>
        <mxCell id="8x8lRua5yeeO8kw2qOX0-74" value="Contiene" style="rhombus;whiteSpace=wrap;html=1;" parent="1" vertex="1">
          <mxGeometry x="270" y="80" width="80" height="80" as="geometry" />
        </mxCell>
        <mxCell id="8x8lRua5yeeO8kw2qOX0-77" value="" style="ellipse;whiteSpace=wrap;html=1;aspect=fixed;" parent="1" vertex="1">
          <mxGeometry x="190" y="200" width="40" height="40" as="geometry" />
        </mxCell>
        <mxCell id="8x8lRua5yeeO8kw2qOX0-78" value="" style="ellipse;whiteSpace=wrap;html=1;aspect=fixed;" parent="1" vertex="1">
          <mxGeometry x="190" y="265" width="40" height="40" as="geometry" />
        </mxCell>
        <mxCell id="8x8lRua5yeeO8kw2qOX0-79" value="Prezzo Pieno" style="text;html=1;align=center;verticalAlign=middle;whiteSpace=wrap;rounded=0;" parent="1" vertex="1">
          <mxGeometry x="230" y="205" width="80" height="30" as="geometry" />
        </mxCell>
        <mxCell id="8x8lRua5yeeO8kw2qOX0-80" value="Prezzo Scontato" style="text;html=1;align=center;verticalAlign=middle;whiteSpace=wrap;rounded=0;" parent="1" vertex="1">
          <mxGeometry x="230" y="270" width="100" height="30" as="geometry" />
        </mxCell>
        <mxCell id="8x8lRua5yeeO8kw2qOX0-83" value="" style="ellipse;whiteSpace=wrap;html=1;aspect=fixed;" parent="1" vertex="1">
          <mxGeometry x="190" y="330" width="40" height="40" as="geometry" />
        </mxCell>
        <mxCell id="8x8lRua5yeeO8kw2qOX0-85" value="" style="ellipse;whiteSpace=wrap;html=1;aspect=fixed;" parent="1" vertex="1">
          <mxGeometry x="520" y="640" width="40" height="40" as="geometry" />
        </mxCell>
        <mxCell id="8x8lRua5yeeO8kw2qOX0-87" value="Nome Categoria" style="text;html=1;align=center;verticalAlign=middle;whiteSpace=wrap;rounded=0;" parent="1" vertex="1">
          <mxGeometry x="560" y="645" width="90" height="30" as="geometry" />
        </mxCell>
        <mxCell id="8x8lRua5yeeO8kw2qOX0-88" value="" style="ellipse;whiteSpace=wrap;html=1;aspect=fixed;" parent="1" vertex="1">
          <mxGeometry x="190" y="395" width="40" height="40" as="geometry" />
        </mxCell>
        <mxCell id="8x8lRua5yeeO8kw2qOX0-90" value="Inizio sconto" style="text;html=1;align=center;verticalAlign=middle;whiteSpace=wrap;rounded=0;" parent="1" vertex="1">
          <mxGeometry x="230" y="335" width="80" height="30" as="geometry" />
        </mxCell>
        <mxCell id="8x8lRua5yeeO8kw2qOX0-91" value="Fine sconto" style="text;html=1;align=center;verticalAlign=middle;whiteSpace=wrap;rounded=0;" parent="1" vertex="1">
          <mxGeometry x="230" y="400" width="80" height="30" as="geometry" />
        </mxCell>
        <mxCell id="8x8lRua5yeeO8kw2qOX0-92" value="" style="endArrow=none;html=1;rounded=0;" parent="1" edge="1">
          <mxGeometry width="50" height="50" relative="1" as="geometry">
            <mxPoint x="170" y="435" as="sourcePoint" />
            <mxPoint x="170" y="395" as="targetPoint" />
          </mxGeometry>
        </mxCell>
        <mxCell id="8x8lRua5yeeO8kw2qOX0-93" value="" style="endArrow=none;html=1;rounded=0;" parent="1" edge="1">
          <mxGeometry width="50" height="50" relative="1" as="geometry">
            <mxPoint x="170" y="370" as="sourcePoint" />
            <mxPoint x="170" y="330" as="targetPoint" />
          </mxGeometry>
        </mxCell>
        <mxCell id="8x8lRua5yeeO8kw2qOX0-94" value="" style="endArrow=none;html=1;rounded=0;" parent="1" edge="1">
          <mxGeometry width="50" height="50" relative="1" as="geometry">
            <mxPoint x="170" y="305" as="sourcePoint" />
            <mxPoint x="170" y="265" as="targetPoint" />
          </mxGeometry>
        </mxCell>
        <mxCell id="8x8lRua5yeeO8kw2qOX0-95" value="" style="endArrow=none;html=1;rounded=0;" parent="1" edge="1">
          <mxGeometry width="50" height="50" relative="1" as="geometry">
            <mxPoint x="400" y="150" as="sourcePoint" />
            <mxPoint x="400" y="90" as="targetPoint" />
          </mxGeometry>
        </mxCell>
        <mxCell id="8x8lRua5yeeO8kw2qOX0-96" value="" style="endArrow=none;html=1;rounded=0;" parent="1" edge="1">
          <mxGeometry width="50" height="50" relative="1" as="geometry">
            <mxPoint x="550" y="150" as="sourcePoint" />
            <mxPoint x="550" y="90" as="targetPoint" />
          </mxGeometry>
        </mxCell>
        <mxCell id="8x8lRua5yeeO8kw2qOX0-97" value="" style="endArrow=none;html=1;rounded=0;" parent="1" edge="1">
          <mxGeometry width="50" height="50" relative="1" as="geometry">
            <mxPoint x="1070" y="150" as="sourcePoint" />
            <mxPoint x="1070" y="90" as="targetPoint" />
          </mxGeometry>
        </mxCell>
        <mxCell id="8x8lRua5yeeO8kw2qOX0-98" value="" style="endArrow=none;html=1;rounded=0;" parent="1" edge="1">
          <mxGeometry width="50" height="50" relative="1" as="geometry">
            <mxPoint x="444" y="295" as="sourcePoint" />
            <mxPoint x="504" y="295" as="targetPoint" />
          </mxGeometry>
        </mxCell>
        <mxCell id="8x8lRua5yeeO8kw2qOX0-99" value="" style="endArrow=none;html=1;rounded=0;" parent="1" edge="1">
          <mxGeometry width="50" height="50" relative="1" as="geometry">
            <mxPoint x="444" y="530" as="sourcePoint" />
            <mxPoint x="504" y="530" as="targetPoint" />
          </mxGeometry>
        </mxCell>
      </root>
    </mxGraphModel>
  </diagram>
</mxfile>
